<?xml version="1.0" encoding="UTF-8"?>
<!DOCTYPE svg PUBLIC "-//W3C//DTD SVG 1.1//EN" "http://www.w3.org/Graphics/SVG/1.1/DTD/svg11.dtd">
<!-- Creator: CorelDRAW X7 -->
<svg xmlns="http://www.w3.org/2000/svg" xml:space="preserve" width="10.7773in" height="13.1017in" version="1.1" style="shape-rendering:geometricPrecision; text-rendering:geometricPrecision; image-rendering:optimizeQuality; fill-rule:evenodd; clip-rule:evenodd"
viewBox="0 0 10777 13102"
 xmlns:xlink="http://www.w3.org/1999/xlink">
 <defs>
  <style type="text/css">
   <![CDATA[
    .fil5 {fill:none}
    .fil0 {fill:#FEFEFE}
    .fil1 {fill:#002992}
    .fil4 {fill:white}
    .fil2 {fill:#002992;fill-rule:nonzero}
    .fil3 {fill:white;fill-rule:nonzero}
   ]]>
  </style>
 </defs>
 <g id="Layer_x0020_1">
  <metadata id="CorelCorpID_0Corel-Layer"/>
  <g id="_239707040">
   <path class="fil0" d="M5389 0l5388 2958 -273 3331 -240 2886c0,0 -62,854 -625,1750 -562,895 -1385,1385 -1385,1385 0,0 -1365,781 -2875,792 -1511,10 -2802,-740 -2802,-740 0,0 -1438,-729 -1959,-2531 -136,-474 -187,-1282 -244,-2059 -42,-581 -102,-1144 -128,-1535 -117,-1707 -246,-3283 -246,-3283l5389 -2954z"/>
   <path class="fil1" d="M750 7393l9304 16 94 -1182 250 -3046 -4990 -2718 -4982 2746c115,1399 230,2784 324,4184z"/>
   <path class="fil2" d="M3999 8872c4,0 8,-1 11,-3 3,-3 4,-6 4,-11l0 -62c0,-5 -1,-8 -4,-11 -3,-2 -7,-3 -11,-3l-89 0 0 -688 89 0c4,0 8,-1 11,-3 3,-3 4,-6 4,-11l0 -62c0,-5 -1,-8 -4,-11 -3,-2 -7,-3 -11,-3l-277 0c-5,0 -9,1 -11,3 -3,3 -4,6 -4,11l0 62c0,5 2,8 4,11 3,2 7,3 11,3l88 0 0 688 -88 0c-5,0 -9,1 -11,3 -3,3 -4,6 -4,11l0 62c0,5 2,8 4,11 3,2 7,3 11,3l277 0z"/>
   <path class="fil2" d="M4871 8872c4,0 8,-1 11,-3 2,-3 4,-6 4,-11l0 -763 90 0c10,0 14,-5 14,-15l0 -62c0,-9 -4,-14 -14,-14l-283 0c-9,0 -14,5 -14,14l0 62c0,10 5,15 14,15l91 0 0 607 -3 0c0,-1 -3,-6 -9,-17 -5,-11 -13,-26 -23,-43 -10,-18 -22,-37 -34,-58l-335 -539c-4,-7 -8,-13 -14,-20 -5,-6 -11,-11 -18,-15 -8,-4 -17,-6 -27,-6l-165 0c-5,0 -9,1 -11,4 -3,2 -4,6 -4,10l0 62c0,5 1,9 4,11 3,2 7,4 11,4l89 0 0 687 -89 0c-5,0 -9,1 -11,3 -3,3 -4,6 -4,11l0 62c0,5 1,8 4,11 3,2 7,3 11,3l282 0c4,0 8,-1 11,-3 3,-3 4,-6 4,-11l0 -62c0,-5 -1,-8 -4,-11 -3,-2 -7,-3 -11,-3l-91 0 0 -595 3 0c0,0 2,5 7,14 6,10 12,22 21,37 9,15 19,32 30,50l339 547c5,7 10,14 15,20 5,5 11,10 18,13 8,3 17,4 27,4l64 0z"/>
   <path class="fil2" d="M5875 8866c9,0 14,-5 14,-15l0 -361c0,-10 -5,-14 -14,-14l-306 0c-10,0 -15,4 -15,14l0 55c0,5 2,8 4,11 2,3 6,4 11,4l219 0 0 93c-8,14 -19,28 -34,42 -14,14 -32,27 -53,39 -22,12 -47,21 -76,29 -28,7 -62,11 -99,11 -30,0 -59,-5 -88,-14 -29,-9 -56,-23 -81,-41 -26,-18 -49,-41 -68,-68 -20,-27 -35,-59 -46,-94 -11,-36 -17,-76 -17,-121 0,-42 5,-80 16,-115 11,-35 26,-67 45,-94 19,-27 41,-50 66,-69 26,-19 53,-33 82,-43 29,-10 58,-15 89,-15 37,0 70,5 100,15 30,10 56,23 78,39 22,15 38,32 50,50 12,18 18,35 18,51l0 14c0,10 4,15 14,15l74 0c5,0 9,-2 11,-4 3,-2 5,-6 5,-11l0 -245c0,-5 -2,-9 -5,-11 -2,-3 -6,-4 -11,-4l-66 0c-5,0 -9,1 -11,4 -3,2 -4,6 -3,11l1 91c-8,-12 -19,-24 -33,-37 -14,-14 -31,-26 -52,-37 -21,-12 -46,-21 -75,-28 -29,-7 -62,-11 -100,-11 -41,0 -82,6 -121,18 -39,12 -76,30 -110,54 -34,24 -64,53 -90,87 -25,35 -46,75 -60,121 -15,45 -22,95 -22,151 0,67 11,128 31,182 21,55 49,101 86,139 37,39 80,69 129,89 49,21 103,31 160,31 36,0 68,-3 97,-9 29,-7 54,-15 77,-25 22,-10 42,-22 59,-34 16,-12 31,-25 43,-37l-1 82c0,5 1,9 4,11 3,3 6,4 11,4l63 0z"/>
   <path class="fil2" d="M6355 8866c9,0 13,-5 13,-14l0 -61c0,-10 -4,-14 -13,-14l-131 0 0 -292 271 0c5,0 8,-2 11,-4 3,-2 4,-6 4,-11l0 -61c0,-4 -1,-8 -4,-10 -2,-3 -6,-4 -11,-4l-271 0 0 -295 328 0 0 116c0,5 1,9 3,12 2,2 6,4 10,4l63 0c4,0 8,-2 11,-4 2,-3 4,-7 4,-12l0 -192c0,-4 -2,-8 -4,-10 -3,-3 -7,-4 -11,-4l-592 0c-5,0 -9,1 -11,4 -2,2 -4,6 -4,10l0 61c0,5 2,9 4,11 3,2 7,4 11,4l88 0 0 677 -88 0c-5,0 -9,1 -11,3 -2,3 -4,6 -4,11l0 61c0,4 2,8 4,10 3,3 7,4 11,4l319 0z"/>
   <path class="fil2" d="M7070 8871c5,0 9,-1 11,-3 3,-3 4,-6 4,-11l0 -62c0,-5 -1,-8 -4,-11 -2,-2 -6,-3 -11,-3l-88 0 0 -686 88 0c5,0 9,-1 11,-3 3,-3 4,-6 4,-11l0 -62c0,-4 -1,-8 -4,-10 -2,-3 -6,-4 -11,-4l-276 0c-5,0 -9,1 -12,4 -2,2 -3,6 -3,10l0 62c0,5 1,8 4,11 2,2 6,3 11,3l87 0 0 686 -87 0c-5,0 -9,1 -12,3 -2,3 -3,6 -3,11l0 62c0,5 1,8 4,11 2,2 6,3 11,3l276 0z"/>
   <path class="fil2" d="M7862 8870c5,0 9,-1 12,-3 2,-3 4,-6 4,-11l0 -194c0,-5 -2,-8 -4,-11 -3,-2 -7,-3 -12,-3l-65 0c-5,0 -8,1 -11,3 -3,3 -4,6 -4,11l0 118 -363 0 0 -295 305 0c5,0 8,-1 11,-4 3,-2 4,-6 4,-10l0 -62c0,-5 -1,-8 -4,-11 -3,-2 -6,-3 -11,-3l-305 0 0 -299 364 0 0 118c0,5 1,9 3,12 3,2 6,4 11,4l65 0c5,0 9,-2 12,-4 2,-3 4,-7 4,-12l0 -194c0,-4 -2,-8 -4,-10 -3,-3 -7,-4 -12,-4l-639 0c-5,0 -9,1 -11,4 -3,2 -4,6 -4,10l0 62c0,5 1,8 4,11 3,2 7,3 11,3l92 0 0 684 -92 0c-5,0 -9,1 -11,4 -3,2 -4,6 -4,10l0 62c0,5 1,8 4,11 3,2 7,3 11,3l639 0z"/>
   <path class="fil2" d="M8652 8871c5,0 8,-1 11,-4 3,-3 4,-7 4,-11l0 -194c0,-9 -4,-14 -14,-14l-63 0c-5,0 -9,1 -12,4 -2,2 -4,6 -4,10l0 119 -374 0 0 -686 90 0c4,0 8,-1 11,-4 3,-3 4,-6 4,-11l0 -59c0,-5 -1,-9 -4,-12 -3,-3 -7,-4 -11,-4l-282 0c-5,0 -9,1 -11,4 -3,2 -4,6 -4,10l0 62c0,5 1,8 4,11 3,2 7,3 11,3l90 0 0 686 -90 0c-5,0 -9,1 -11,3 -3,3 -4,6 -4,11l0 62c0,5 1,8 4,11 3,2 7,3 11,3l644 0z"/>
   <path class="fil1" d="M1199 10142c214,462 498,864 844,1199 582,561 1334,920 2117,1109 406,98 814,185 1226,173 1632,-47 3102,-712 3970,-2028 198,-299 327,-601 412,-864l-8733 0c46,137 100,271 164,411z"/>
   <path class="fil2" d="M9146 8878c63,-1 121,-11 172,-31 51,-20 94,-49 131,-87 36,-38 64,-84 83,-139 19,-54 29,-115 29,-184 0,-69 -10,-131 -31,-185 -20,-54 -49,-100 -88,-138 -38,-37 -83,-66 -137,-86 -53,-19 -113,-29 -180,-29l-325 0c-9,0 -14,4 -14,14l0 63c0,5 1,8 4,11 2,2 6,3 10,3l93 0 0 696 -93 0c-9,0 -14,5 -14,15l0 62c0,5 1,9 4,11 2,2 6,4 10,4l346 0zm-148 -92l0 -696 115 0c75,1 138,15 188,43 50,28 88,68 113,120 25,52 38,114 38,186 -1,115 -29,202 -86,259 -57,58 -140,87 -249,88l-119 0z"/>
   <path class="fil1" d="M249 3138l5140 -2837 5141 2822 -261 3178 -229 2753c0,0 -59,815 -596,1670 -537,854 -1322,1321 -1322,1321 0,0 -1364,746 -2743,756 -2005,14 -3967,-1132 -4541,-3121 -121,-418 -171,-1110 -225,-1798 -47,-612 -103,-1221 -131,-1630 -112,-1629 -233,-3114 -233,-3114zm-249 -184c0,0 129,1576 246,3283 26,391 86,954 128,1535 57,777 108,1585 244,2059 521,1802 1959,2531 1959,2531 0,0 1291,750 2802,740 1510,-11 2875,-792 2875,-792 0,0 823,-490 1385,-1385 563,-896 625,-1750 625,-1750l240 -2886 273 -3331 -5388 -2958 -5389 2954z"/>
   <polygon class="fil3" points="3914,10066 3914,10166 3801,10166 3801,10066 "/>
   <polygon class="fil3" points="4130,10066 4130,10166 4017,10166 4017,10066 "/>
   <polygon class="fil3" points="4349,10066 4349,10166 4232,10166 4232,10066 "/>
   <polygon class="fil3" points="4564,10066 4564,10166 4449,10166 4449,10066 "/>
   <polygon class="fil3" points="4783,10066 4783,10166 4667,10166 4667,10066 "/>
   <polygon class="fil3" points="4996,10066 4996,10166 4880,10166 4880,10066 "/>
   <polygon class="fil3" points="5217,10066 5217,10166 5097,10166 5097,10066 "/>
   <polygon class="fil3" points="5433,10066 5433,10166 5319,10166 5319,10066 "/>
   <polygon class="fil3" points="5654,10066 5654,10166 5536,10166 5536,10066 "/>
   <polygon class="fil3" points="5870,10066 5870,10166 5752,10166 5752,10066 "/>
   <polygon class="fil3" points="6084,10066 6084,10166 5968,10166 5968,10066 "/>
   <polygon class="fil3" points="6303,10066 6303,10166 6186,10166 6186,10066 "/>
   <polygon class="fil3" points="6515,10066 6515,10166 6402,10166 6402,10066 "/>
   <polygon class="fil3" points="6735,10066 6735,10166 6622,10166 6622,10066 "/>
   <polygon class="fil3" points="6952,10066 6952,10166 6838,10166 6838,10066 "/>
   <polygon class="fil3" points="7170,10066 7170,10166 7054,10166 7054,10066 "/>
   <polygon class="fil3" points="7385,10066 7385,10166 7271,10166 7271,10066 "/>
   <polygon class="fil3" points="7607,10066 7607,10166 7487,10166 7487,10066 "/>
   <polygon class="fil3" points="7819,10066 7819,10166 7707,10166 7707,10066 "/>
   <polygon class="fil3" points="8043,10066 8043,10166 7925,10166 7925,10066 "/>
   <polygon class="fil3" points="8258,10066 8258,10166 8142,10166 8142,10066 "/>
   <polygon class="fil3" points="8474,10066 8474,10166 8357,10166 8357,10066 "/>
   <polygon class="fil3" points="8694,10066 8694,10166 8573,10166 8573,10066 "/>
   <polygon class="fil3" points="8909,10066 8909,10166 8792,10166 8792,10066 "/>
   <polygon class="fil3" points="9126,10066 9126,10166 9011,10166 9011,10066 "/>
   <polygon class="fil3" points="9344,10066 9344,10166 9226,10166 9226,10066 "/>
   <polygon class="fil3" points="9567,10066 9567,10166 9445,10166 9445,10066 "/>
   <path class="fil4" d="M5454 10387l120 360c3,8 10,13 19,13l391 -1c9,0 16,5 19,14 2,8 -1,16 -7,21l-318 233c-7,5 -10,14 -7,22l122 377c2,8 0,17 -7,22 -7,5 -16,5 -23,0l-316 -234c-7,-5 -16,-5 -23,0l-316 234c-7,5 -15,5 -22,0 -7,-5 -10,-14 -8,-22l122 -377c3,-8 0,-17 -7,-22l-317 -233c-7,-5 -10,-13 -7,-21 2,-9 10,-14 18,-14l392 1c8,0 15,-5 18,-13l120 -360c3,-8 10,-13 19,-13 8,0 15,5 18,13z"/>
   <path class="fil4" d="M4423 11391l100 300c2,6 8,11 15,11l327 -1c7,0 13,5 15,11 2,7 0,14 -6,18l-265 195c-5,4 -8,11 -5,18l101 314c2,7 0,14 -6,18 -6,4 -13,4 -19,0l-263 -195c-6,-4 -13,-4 -19,0l-263 195c-6,4 -13,4 -19,0 -6,-4 -8,-11 -6,-18l101 -314c2,-7 0,-14 -6,-18l-264 -195c-6,-4 -8,-11 -6,-18 2,-6 8,-11 15,-11l327 1c7,0 13,-5 15,-11l100 -300c2,-7 8,-11 15,-11 8,0 14,4 16,11z"/>
   <path class="fil4" d="M6476 11391l100 294c2,7 8,11 15,11l327 0c7,0 13,4 15,11 2,6 0,13 -6,17l-265 191c-5,4 -7,11 -5,18l101 308c2,7 0,14 -6,18 -6,4 -13,4 -19,0l-263 -191c-6,-4 -13,-4 -19,0l-263 191c-6,4 -13,4 -19,0 -6,-4 -8,-11 -6,-18l101 -308c2,-7 0,-14 -5,-18l-265 -191c-6,-4 -8,-11 -6,-17 2,-7 8,-11 15,-11l327 0c7,0 13,-4 15,-11l100 -294c2,-6 8,-11 15,-11 8,0 14,5 16,11z"/>
   <path class="fil4" d="M3797 6840c474,120 776,52 906,-203 -242,-192 -544,-125 -906,203z"/>
   <path class="fil5" d="M3797 6840c435,-104 737,-171 906,-203"/>
   <path class="fil4" d="M3920 5871c171,442 407,628 708,557 -8,-294 -244,-480 -708,-557z"/>
   <line class="fil5" x1="3922" y1="5874" x2="4630" y2= "6431" />
   <path class="fil4" d="M3476 5419c352,288 451,559 296,813 -266,-96 -364,-367 -296,-813z"/>
   <line class="fil5" x1="3478" y1="5422" x2="3775" y2= "6235" />
   <path class="fil4" d="M3162 6562c431,196 730,163 896,-98 -212,-204 -511,-172 -896,98z"/>
   <line class="fil5" x1="3165" y1="6562" x2="4061" y2= "6465" />
   <path class="fil4" d="M7036 5878c-171,442 -407,628 -709,557 9,-294 245,-480 709,-557z"/>
   <line class="fil5" x1="7034" y1="5881" x2="6325" y2= "6438" />
   <path class="fil4" d="M7675 2248c99,464 303,685 611,663 39,-292 -165,-513 -611,-663z"/>
   <line class="fil5" x1="7677" y1="2252" x2="8288" y2= "2914" />
   <path class="fil4" d="M7787 2882c139,454 362,656 667,607 13,-295 -210,-497 -667,-607z"/>
   <line class="fil5" x1="7789" y1="2885" x2="8456" y2= "3492" />
   <path class="fil4" d="M8170 3511c-2,455 144,703 438,746 96,-266 -50,-515 -438,-746z"/>
   <line class="fil5" x1="8171" y1="3514" x2="8609" y2= "4260" />
   <path class="fil4" d="M8195 4106c-103,443 -17,718 260,825 153,-238 66,-513 -260,-825z"/>
   <line class="fil5" x1="8195" y1="4109" x2="8455" y2= "4934" />
   <path class="fil4" d="M8063 4699c-159,426 -108,710 154,851 181,-217 130,-500 -154,-851z"/>
   <line class="fil5" x1="8063" y1="4702" x2="8216" y2= "5554" />
   <path class="fil4" d="M7777 5071c-235,390 -237,678 -6,865 218,-179 220,-468 6,-865z"/>
   <line class="fil5" x1="7776" y1="5075" x2="7770" y2= "5940" />
   <path class="fil4" d="M7480 5426c-352,289 -451,559 -297,813 266,-96 365,-366 297,-813z"/>
   <line class="fil5" x1="7478" y1="5429" x2="7181" y2= "6242" />
   <path class="fil4" d="M7147 6819c-448,153 -742,92 -882,-184 231,-183 525,-122 882,184z"/>
   <line class="fil5" x1="7144" y1="6819" x2="6261" y2= "6635" />
   <path class="fil4" d="M7792 6587c-439,179 -736,135 -892,-133 220,-196 517,-152 892,133z"/>
   <line class="fil5" x1="7788" y1="6587" x2="6897" y2= "6454" />
   <path class="fil4" d="M8522 2389c250,391 256,682 18,874 -229,-178 -235,-470 -18,-874z"/>
   <line class="fil5" x1="8523" y1="2392" x2="8541" y2= "3267" />
   <path class="fil4" d="M8911 3062c149,442 88,731 -183,867 -179,-227 -118,-517 183,-867z"/>
   <line class="fil5" x1="8911" y1="3066" x2="8728" y2= "3933" />
   <path class="fil4" d="M9184 3810c-18,472 -180,723 -487,754 -87,-280 75,-531 487,-754z"/>
   <line class="fil5" x1="9183" y1="3813" x2="8696" y2= "4568" />
   <path class="fil4" d="M9259 4513c-189,427 -430,599 -723,516 22,-289 263,-461 723,-516z"/>
   <line class="fil5" x1="9256" y1="4516" x2="8533" y2= "5032" />
   <path class="fil4" d="M9163 5074c-246,412 -513,558 -801,436 58,-292 326,-438 801,-436z"/>
   <line class="fil5" x1="9161" y1="5077" x2="8359" y2= "5512" />
   <path class="fil4" d="M8836 5646c-476,-92 -768,2 -875,282 259,146 550,52 875,-282z"/>
   <line class="fil5" x1="8832" y1="5646" x2="7957" y2= "5928" />
   <path class="fil4" d="M8367 6144c-445,-177 -746,-139 -901,113 224,189 524,151 901,-113z"/>
   <line class="fil5" x1="8364" y1="6143" x2="7462" y2= "6256" />
   <g>
    <path class="fil4" d="M4244 5294l84 -83 -1 209c0,28 22,50 49,50l0 0c27,0 50,-22 50,-49l1 -309 77 -78 2 205c0,27 22,49 49,49l0 0c28,0 50,-22 50,-49l-2 -303 210 -210 -21 21c122,-1 287,-1 466,-1 -3,6 -4,12 -4,19l0 0c0,29 24,53 53,53l363 0c29,0 53,-24 53,-53l0 0c0,-7 -2,-14 -4,-20l0 0c158,0 306,-1 423,-1l190 190 -2 303c0,27 22,50 49,50l0 0c28,0 50,-22 50,-49l1 -205 78 77 1 309c0,28 22,50 50,50l0 0c27,0 49,-23 49,-50l-1 -210 83 83 -2 309c0,28 22,50 50,50l0 0c27,0 49,-22 49,-49l2 -306c2,1 4,1 6,1l320 -4c27,-1 49,-23 49,-50l0 0c-1,-28 -23,-50 -50,-49l-317 4 -91 -92 218 3c27,0 49,-22 50,-49l0 0c0,-27 -22,-50 -49,-50l-319 -4 -88 -87 226 3c27,0 50,-22 50,-49l0 0c0,-27 -22,-50 -49,-50l-320 -4c-2,0 -4,0 -6,0l-75 -75c27,0 43,0 43,0 0,0 72,5 69,-83 -3,-88 -4,-1405 -4,-1405 -30,-55 -81,-34 -81,-34l1 1440 -110 0 -258 -258 -124 79 179 179 -1182 0 177 -178 -123 -79 -256 257 -75 0 6 -1428c0,0 -43,-33 -82,28 -4,5 0,1032 2,1380 0,3 -1,5 -1,7 -7,106 35,99 64,98l-73 73c-2,0 -4,0 -6,0l-320 4c-28,0 -50,23 -49,50l0 0c0,27 23,49 50,49l225 -3 -87 87 -319 4c-27,1 -49,23 -49,51l0 0c0,27 23,49 50,48l218 -2 -91 91 -317 -4c-27,0 -50,22 -50,49l0 0c0,27 22,50 49,50l320 4c2,0 4,0 6,0l1 305c1,28 23,50 50,50l0 0c27,-1 50,-23 49,-50l-2 -309zm1031 -571c1,-1 1,-1 2,-2 -1,1 -1,1 -2,2zm28 -11c1,0 1,0 2,0 -1,0 -1,0 -2,0z"/>
    <path class="fil4" d="M4823 3210l-433 -425 116 -118c3,-3 3,-6 3,-9 -1,-3 -4,-6 -7,-7l-462 -127c-3,-1 -6,0 -9,3 -2,2 -3,5 -2,9l124 468c1,4 3,6 6,7 4,1 7,0 9,-3l119 -120 382 384 0 1376c0,0 426,-336 753,-76l22 12c20,11 -1,-905 3,-1274 0,-4 0,-9 0,-9 -132,-158 -312,-151 -499,-108 -39,9 -79,14 -118,26l-7 -9z"/>
    <path class="fil4" d="M6568 2783l-117 -117c-2,-3 -3,-6 -2,-9 1,-4 3,-6 6,-7l461 -127c4,-1 7,0 9,2 3,3 4,6 3,9l-124 469c-1,3 -3,6 -6,7 -4,0 -7,0 -9,-3l-119 -120 -369 367 2 1394c0,-1 -418,-218 -629,-164 -59,16 -89,61 -151,100 -13,8 4,-905 -1,-1274 0,-4 0,-9 0,-9 117,-140 264,-152 425,-125 59,9 127,17 187,36l434 -429z"/>
    <path class="fil4" d="M5448 3827c0,0 17,18 26,26 9,8 10,-4 10,-4 0,0 13,-27 32,-32 19,-4 32,-1 32,-1l-17 304 -11 -2c0,0 -37,-32 -37,-38 0,-6 -15,-11 -15,-5 0,5 -14,16 -19,19 -6,3 -19,-7 -19,-7l2 -261 16 1z"/>
   </g>
   <polygon class="fil3" points="4936,6668 4893,6775 5000,6736 5019,6757 4875,6810 4847,6820 4858,6793 4917,6649 "/>
   <polygon class="fil4" points="4929,6634 5039,6745 5911,5868 5802,5760 "/>
   <path class="fil3" d="M5912 5854l-96 -94c-2,-2 -3,-5 -3,-8 0,-3 1,-5 3,-7l9 -10c2,-2 5,-3 7,-3 3,0 6,1 8,3l96 94 0 0 0 0 0 0c2,2 3,5 3,7 0,3 -1,6 -3,8l0 0 0 0 0 0 -9 9c-2,2 -5,4 -8,4 -3,0 -5,-1 -7,-3z"/>
   <g>
    <path class="fil3" d="M5869 5722l77 78c1,0 2,1 2,1 1,0 2,-1 3,-1l0 0 32 -32 0 0c1,-1 1,-2 1,-3 0,0 0,-1 -1,-2l-77 -78c-1,-1 -1,-1 -2,-1 -1,0 -2,0 -3,1l-32 32c-1,1 -1,2 -1,2 0,1 0,2 1,3zm63 92l-77 -78c-5,-5 -7,-11 -7,-17 0,-6 2,-12 7,-16l32 -32 0 0c5,-5 11,-7 17,-7 6,0 12,2 16,7l77 78c5,5 7,11 7,16 0,6 -2,12 -7,17l0 0 -32 32 0 0c-5,4 -11,7 -17,7 -6,0 -12,-3 -16,-7zm-31 -129l0 0 0 0z"/>
   </g>
   <path class="fil3" d="M5046 6092l-178 -193c-3,-2 -4,-5 -4,-9 0,-4 2,-7 4,-9l1 -1c5,-5 14,-4 18,1l179 192c3,3 4,6 4,9 0,4 -2,7 -4,9l-1 1c-6,5 -14,5 -19,0z"/>
   <path class="fil3" d="M4956 5851l323 339c3,4 8,6 14,7 5,0 10,-2 14,-6l79 -75c4,-4 6,-9 6,-14 1,-6 -1,-11 -5,-15l-323 -339c-4,-4 -9,-6 -14,-6 -5,0 -10,1 -14,5l-80 76c-4,4 -6,9 -6,14 0,5 2,10 6,14zm303 358l-323 -340c-8,-9 -13,-21 -12,-33 0,-12 5,-24 14,-32l80 -76c9,-9 21,-13 33,-13 12,1 24,5 32,15l323 339c9,9 13,21 13,33 0,12 -5,24 -14,33l-80 75c-9,9 -21,13 -33,13 -12,0 -24,-5 -33,-14z"/>
   <path class="fil3" d="M4958 5789l5 5c3,3 4,6 4,9 0,4 -1,7 -3,9l-82 83c-4,5 -15,7 -18,1l94 -107z"/>
   <path class="fil3" d="M4961 5786l5 5c2,2 3,4 4,6 1,2 1,4 1,6 0,2 0,4 -1,6l0 0c-1,2 -2,4 -4,6l-81 83c-2,2 -4,4 -7,5l0 0c-3,1 -5,1 -8,1 -2,0 -3,-3 -5,-5 -1,-1 -1,-2 -2,-3l-1 -3 2 -13 92 -92 3 -4 2 2zm0 11l-3 -2 -88 101c0,0 0,0 1,0l0 0c1,0 3,0 4,-1l0 0c2,0 4,-1 5,-2l81 -84c1,-1 1,-2 2,-3l0 0c0,-1 0,-2 0,-3 0,-1 0,-2 0,-3 -1,-1 -1,-2 -2,-3z"/>
   <path class="fil3" d="M4936 5806l89 -82 -32 -34 -89 82 32 34zm103 -68l-90 83c-4,4 -9,6 -14,6 -5,-1 -9,-3 -13,-6l-32 -35 0 0 0 0 -1 -1c-3,-4 -5,-9 -5,-13 0,-5 2,-10 6,-14l0 0 0 0 0 0 89 -83 0 0 0 0 1 0c4,-4 9,-5 14,-5 4,0 9,2 13,6l0 0 0 0 0 0 33 35c3,4 5,9 5,14 0,5 -2,10 -6,13z"/>
   <path class="fil3" d="M4904 5743l59 -55 -29 -32 -59 55 29 32zm73 -40l-60 55c-4,3 -9,5 -14,5l0 0c-5,-1 -10,-3 -13,-7l-30 -32 0 0 0 0 0 0c-4,-4 -5,-9 -5,-14 0,-5 2,-10 6,-13l0 0 0 0 0 -1 60 -54 0 0 0 0 0 -1c4,-3 9,-5 14,-5 5,1 10,3 13,6l0 0 0 0 0 1 30 32c4,4 6,9 5,14l0 0c0,5 -2,10 -6,14z"/>
   <path class="fil3" d="M5336 6215l507 501 77 -78 -508 -500 -76 77zm491 522l-512 -506c-5,-4 -7,-10 -7,-16l0 0c0,-5 2,-11 6,-16l82 -83c5,-4 10,-7 16,-7l0 0c6,0 12,3 16,7l513 506c5,4 7,10 7,16l0 0c0,6 -2,11 -6,16l-82 83 0 0 0 0 -1 0c-4,5 -10,7 -15,7l0 0c-6,0 -12,-2 -16,-7l-1 0 0 0 0 0z"/>
   <path class="fil5" d="M6986 7458l-58 60c-3,4 -3,10 1,13l34 34c4,3 10,3 13,-1l58 -59c4,-4 3,-10 0,-14l-35 -33c-3,-3 -9,-3 -13,0z"/>
   <path class="fil5" d="M5953 6789l40 -43c3,-4 3,-10 -1,-13l-23 -22c-3,-3 -9,-3 -13,1l-39 43c-4,3 -4,9 0,13l23 21c4,4 10,4 13,0z"/>
   <path class="fil5" d="M6017 6804c2,7 -8,19 -20,13 -12,-5 -38,-34 -38,-34l22 -22c11,12 33,29 36,43z"/>
   <g id="_239702720">
    <polygon class="fil3" points="3952,7118 3952,7218 3828,7218 3828,7118 "/>
    <polygon class="fil3" points="4182,7118 4182,7218 4058,7218 4058,7118 "/>
    <polygon class="fil3" points="4418,7118 4418,7218 4291,7218 4291,7118 "/>
    <polygon class="fil3" points="4651,7118 4651,7218 4525,7218 4525,7118 "/>
    <polygon class="fil3" points="4882,7118 4882,7218 4756,7218 4756,7118 "/>
    <polygon class="fil3" points="5112,7118 5112,7218 4984,7218 4984,7118 "/>
    <polygon class="fil3" points="5342,7118 5342,7218 5211,7218 5211,7118 "/>
    <polygon class="fil3" points="5575,7118 5575,7218 5450,7218 5450,7118 "/>
    <polygon class="fil3" points="5800,7118 5800,7218 5671,7218 5671,7118 "/>
    <polygon class="fil3" points="6035,7118 6035,7218 5906,7218 5906,7118 "/>
    <polygon class="fil3" points="6262,7118 6262,7218 6135,7218 6135,7118 "/>
    <polygon class="fil3" points="6495,7118 6495,7218 6367,7218 6367,7118 "/>
    <polygon class="fil3" points="6728,7118 6728,7218 6603,7218 6603,7118 "/>
    <polygon class="fil3" points="6962,7118 6962,7218 6838,7218 6838,7118 "/>
    <polygon class="fil3" points="7195,7118 7195,7218 7070,7218 7070,7118 "/>
    <polygon class="fil3" points="7431,7118 7431,7218 7303,7218 7303,7118 "/>
    <polygon class="fil3" points="7662,7118 7662,7218 7538,7218 7538,7118 "/>
    <polygon class="fil3" points="7896,7118 7896,7218 7765,7218 7765,7118 "/>
    <polygon class="fil3" points="8121,7118 8121,7218 7998,7218 7998,7118 "/>
    <polygon class="fil3" points="8355,7118 8355,7218 8226,7218 8226,7118 "/>
    <polygon class="fil3" points="8586,7118 8586,7218 8459,7218 8459,7118 "/>
    <polygon class="fil3" points="8816,7118 8816,7218 8688,7218 8688,7118 "/>
    <polygon class="fil3" points="9041,7118 9041,7218 8908,7218 8908,7118 "/>
    <polygon class="fil3" points="9277,7118 9277,7218 9148,7218 9148,7118 "/>
    <polygon class="fil3" points="9503,7118 9503,7218 9377,7218 9377,7118 "/>
    <polygon class="fil3" points="9740,7118 9740,7218 9611,7218 9611,7118 "/>
    <polygon class="fil3" points="9974,7118 9974,7218 9841,7218 9841,7118 "/>
    <polygon class="fil3" points="1405,7118 1405,7218 1272,7218 1272,7118 "/>
    <polygon class="fil3" points="1642,7118 1642,7218 1511,7218 1511,7118 "/>
    <polygon class="fil3" points="1860,7118 1860,7218 1732,7218 1732,7118 "/>
    <polygon class="fil3" points="2106,7118 2106,7218 1978,7218 1978,7118 "/>
    <polygon class="fil3" points="2332,7118 2332,7218 2205,7218 2205,7118 "/>
    <polygon class="fil3" points="2564,7118 2564,7218 2437,7218 2437,7118 "/>
    <polygon class="fil3" points="2795,7118 2795,7218 2668,7218 2668,7118 "/>
    <polygon class="fil3" points="3027,7118 3027,7218 2898,7218 2898,7118 "/>
    <polygon class="fil3" points="3254,7118 3254,7218 3131,7218 3131,7118 "/>
    <polygon class="fil3" points="3487,7118 3487,7218 3361,7218 3361,7118 "/>
    <polygon class="fil3" points="3720,7118 3720,7218 3595,7218 3595,7118 "/>
    <polygon class="fil3" points="1184,7118 1184,7218 1052,7218 1052,7118 "/>
    <polygon class="fil3" points="955,7118 955,7218 822,7218 822,7118 "/>
   </g>
   <path class="fil2" d="M1336 8871c10,0 14,-5 14,-15l-1 -118c6,10 15,22 26,34 11,13 24,25 40,37 16,13 35,24 56,35 21,11 45,19 73,25 26,7 56,10 90,10 52,0 97,-7 135,-20 38,-13 69,-30 93,-53 24,-22 42,-48 53,-78 12,-29 17,-60 17,-93 0,-32 -6,-61 -18,-85 -12,-24 -29,-44 -50,-61 -21,-17 -45,-32 -71,-44 -27,-12 -55,-22 -85,-31 -30,-9 -60,-18 -89,-26 -30,-8 -58,-16 -85,-25 -27,-9 -51,-19 -72,-30 -21,-12 -37,-26 -49,-43 -12,-16 -18,-36 -19,-59 1,-26 8,-49 22,-69 14,-21 34,-36 60,-48 26,-12 57,-18 93,-18 32,0 60,4 84,11 24,7 44,16 61,28 17,11 30,24 41,37 10,14 18,27 22,40 5,13 8,25 8,35l0 34c0,9 4,14 14,14l75 0c9,0 14,-5 14,-14l0 -263c0,-5 -1,-8 -4,-10 -2,-2 -5,-4 -10,-4l-67 0c-5,0 -8,2 -11,4 -3,2 -4,6 -4,11l2 74c-14,-18 -31,-34 -52,-49 -21,-14 -47,-26 -77,-34 -30,-8 -66,-13 -106,-13 -44,0 -83,6 -117,18 -34,12 -64,29 -88,50 -24,21 -42,46 -55,74 -12,28 -19,59 -19,92 0,34 7,64 18,89 12,25 28,46 49,64 20,18 44,33 70,45 27,13 54,24 84,33 29,9 58,17 87,25 29,8 57,16 83,24 27,8 50,18 71,29 20,11 36,24 48,39 12,16 18,34 18,56 0,31 -8,58 -23,80 -16,21 -38,38 -67,49 -29,12 -64,17 -105,17 -32,0 -60,-4 -85,-12 -25,-8 -47,-18 -66,-31 -19,-13 -35,-26 -48,-41 -13,-15 -24,-29 -32,-43 -8,-13 -14,-25 -18,-35 -3,-10 -5,-17 -5,-20l0 -25c0,-5 -2,-9 -4,-12 -3,-2 -6,-4 -11,-4l-74 0c-5,0 -9,2 -12,4 -3,3 -4,7 -4,12l0 282c0,5 1,9 4,11 2,2 6,4 12,4l66 0z"/>
   <path class="fil2" d="M2392 8873c4,0 7,-1 10,-4 2,-2 4,-6 4,-11l0 -61c0,-10 -5,-15 -14,-15l-118 0 0 -237 161 0c63,-1 117,-11 162,-32 45,-21 79,-51 103,-90 23,-40 35,-88 36,-145 -1,-43 -8,-81 -22,-115 -14,-34 -35,-63 -60,-87 -26,-24 -57,-42 -92,-54 -35,-13 -73,-19 -114,-19l-368 0c-6,0 -10,1 -12,4 -3,2 -4,6 -4,11l0 61c0,5 2,9 4,11 3,3 7,4 12,4l91 0 0 688 -91 0c-6,0 -10,1 -12,4 -3,2 -4,6 -4,11l0 61c0,5 2,9 4,11 3,3 7,4 12,4l312 0zm-118 -414l0 -365 157 0c26,0 52,3 75,10 24,7 46,18 64,33 19,15 33,34 44,58 11,23 16,51 16,84 0,42 -8,76 -24,103 -16,26 -38,46 -69,58 -29,13 -65,19 -107,19l-156 0z"/>
   <path class="fil2" d="M3573 8871c4,0 7,-1 10,-3 3,-3 4,-6 4,-11l0 -62c0,-9 -5,-14 -14,-14l-74 0 -100 -198c-10,-19 -20,-36 -29,-49 -8,-13 -18,-24 -28,-32 57,-15 101,-43 131,-82 30,-40 45,-92 46,-154 -1,-43 -8,-81 -22,-113 -15,-33 -35,-60 -61,-82 -26,-22 -56,-38 -92,-49 -35,-11 -73,-17 -115,-17l-370 0c-5,0 -9,1 -11,4 -3,2 -4,6 -4,10l0 62c0,5 1,8 4,11 3,2 7,3 11,3l92 0 0 686 -92 0c-5,0 -9,1 -11,3 -3,3 -4,6 -4,11l0 62c0,5 1,8 4,11 3,2 7,3 11,3l304 0c4,0 8,-1 11,-3 2,-3 4,-6 4,-11l0 -62c0,-9 -5,-14 -15,-14l-108 0 0 -258 153 0c13,0 25,3 34,8 9,5 17,11 23,20 7,9 13,20 18,32l113 230c9,19 19,33 30,43 11,10 25,15 42,15l105 0zm-518 -434l0 -342 154 0c27,0 53,3 78,9 24,6 46,15 65,28 19,14 34,32 45,54 10,22 16,50 16,83 0,42 -9,75 -25,100 -17,24 -41,42 -71,52 -31,11 -67,16 -108,16l-154 0z"/>
   <polygon class="fil3" points="1524,10066 1524,10166 1402,10166 1402,10066 "/>
   <polygon class="fil3" points="1740,10066 1740,10166 1621,10166 1621,10066 "/>
   <polygon class="fil3" points="1962,10066 1962,10166 1844,10166 1844,10066 "/>
   <polygon class="fil3" points="2175,10066 2175,10166 2058,10166 2058,10066 "/>
   <polygon class="fil3" points="2394,10066 2394,10166 2278,10166 2278,10066 "/>
   <polygon class="fil3" points="2611,10066 2611,10166 2495,10166 2495,10066 "/>
   <polygon class="fil3" points="2827,10066 2827,10166 2710,10166 2710,10066 "/>
   <polygon class="fil3" points="3045,10066 3045,10166 2927,10166 2927,10066 "/>
   <polygon class="fil3" points="3259,10066 3259,10166 3147,10166 3147,10066 "/>
   <polygon class="fil3" points="3479,10066 3479,10166 3363,10166 3363,10066 "/>
   <polygon class="fil3" points="3690,10066 3690,10166 3576,10166 3576,10066 "/>
   <polygon class="fil3" points="1299,10066 1299,10166 1199,10166 1199,10066 "/>
   <path class="fil4" d="M3168 2875c-139,453 -361,656 -667,606 -12,-294 210,-496 667,-606z"/>
   <line class="fil5" x1="3166" y1="2878" x2="2499" y2= "3485" />
   <path class="fil4" d="M2786 3503c2,456 -144,704 -438,747 -96,-266 50,-515 438,-747z"/>
   <line class="fil5" x1="2785" y1="3507" x2="2347" y2= "4253" />
   <path class="fil4" d="M2760 4099c104,443 17,718 -260,825 -152,-238 -66,-513 260,-825z"/>
   <line class="fil5" x1="2760" y1="4102" x2="2500" y2= "4927" />
   <path class="fil4" d="M2878 4692c159,426 108,710 -154,851 -181,-217 -130,-500 154,-851z"/>
   <line class="fil5" x1="2878" y1="4695" x2="2725" y2= "5547" />
   <path class="fil4" d="M3179 5068c221,398 214,686 -23,865 -213,-187 -205,-475 23,-865z"/>
   <line class="fil5" x1="3180" y1="5071" x2="3156" y2= "5936" />
   <path class="fil4" d="M3282 2242c-99,464 -302,685 -611,663 -38,-292 165,-513 611,-663z"/>
   <line class="fil5" x1="3278" y1="2245" x2="2668" y2= "2907" />
   <path class="fil4" d="M2433 2382c-250,391 -256,682 -18,874 230,-178 236,-470 18,-874z"/>
   <line class="fil5" x1="2432" y1="2385" x2="2414" y2= "3260" />
   <path class="fil4" d="M2045 3055c-149,442 -88,731 183,867 178,-227 117,-517 -183,-867z"/>
   <line class="fil5" x1="2045" y1="3058" x2="2228" y2= "3926" />
   <path class="fil4" d="M1772 3802c18,473 180,724 487,755 87,-280 -75,-531 -487,-755z"/>
   <line class="fil5" x1="1773" y1="3806" x2="2260" y2= "4561" />
   <path class="fil4" d="M1697 4506c189,427 430,599 723,516 -22,-290 -263,-461 -723,-516z"/>
   <line class="fil5" x1="1699" y1="4509" x2="2422" y2= "5024" />
   <path class="fil4" d="M1792 5067c246,412 513,557 802,436 -59,-293 -326,-438 -802,-436z"/>
   <line class="fil5" x1="1795" y1="5070" x2="2597" y2= "5505" />
   <path class="fil4" d="M2119 5638c477,-91 769,3 876,283 -259,146 -551,52 -876,-283z"/>
   <line class="fil5" x1="2123" y1="5639" x2="2998" y2= "5921" />
   <path class="fil4" d="M2588 6137c446,-177 747,-139 902,113 -224,189 -525,151 -902,-113z"/>
   <line class="fil5" x1="2592" y1="6136" x2="3494" y2= "6249" />
   <path class="fil4" d="M5981 6717c1,2 1,4 2,6 2,7 4,14 6,21 0,1 0,2 1,3 0,2 1,4 2,6 0,1 0,2 0,3 1,2 2,4 2,6 0,1 1,3 1,4 2,6 4,12 5,18 1,2 1,4 2,5 1,4 0,3 -3,3 -2,-1 -4,-1 -6,-2 -22,-5 -45,-11 -67,-17 -24,-6 -49,-12 -73,-18 -2,0 -4,-1 -2,-3 1,0 1,-1 2,-2 2,-1 3,-3 5,-4 2,-3 4,-5 6,-7 1,-1 2,-2 2,-2 5,-5 9,-10 14,-14 3,-3 6,-6 8,-9 5,-5 9,-9 13,-14 1,-1 2,-1 3,-2 0,0 0,0 0,-1l0 0c9,-9 18,-18 27,-27 1,-1 1,-2 2,-3 1,0 2,-1 2,-2 5,-4 9,-9 14,-14 0,0 1,-1 2,-2 2,-2 3,-3 5,-5 2,-3 4,-3 4,0 1,1 1,2 1,3 3,10 6,20 9,30 0,1 0,2 0,3 3,7 5,14 7,21 1,5 3,10 4,16zm-28 -51l15 54 16 54 -55 -14 -54 -13 39 -40 39 -41z"/>
  </g>
 </g>
</svg>
